solid Untitled-5c080378
facet normal 0.9238795325112884 -0.38268343236508584 -0.0
  outer loop
    vertex 89.34799106188574 57.50122869494706 7.049916206369744e-16
    vertex 88.79424821915094 56.164375213949675 7.5
    vertex 88.79424821915094 56.164375213949675 7.049916206369744e-16
  endloop
endfacet
facet normal 0.9238795325112884 -0.38268343236508584 -0.0
  outer loop
    vertex 88.79424821915094 56.164375213949675 7.5
    vertex 89.34799106188574 57.50122869494706 7.049916206369744e-16
    vertex 89.34799106188574 57.50122869494706 7.5
  endloop
endfacet
facet normal 0.13052619222004316 -0.9914448613738116 -0.0
  outer loop
    vertex 85.42853497436872 53.58177260743005 7.5
    vertex 83.99391447731992 53.392901235903516 7.049916206369744e-16
    vertex 85.42853497436872 53.58177260743005 7.049916206369744e-16
  endloop
endfacet
facet normal 0.13052619222004316 -0.9914448613738116 -0.0
  outer loop
    vertex 83.99391447731992 53.392901235903516 7.049916206369744e-16
    vertex 85.42853497436872 53.58177260743005 7.5
    vertex 83.99391447731992 53.392901235903516 7.5
  endloop
endfacet
facet normal 0.3826834323650992 -0.9238795325112831 -0.0
  outer loop
    vertex 86.7653884553661 54.13551545016486 7.5
    vertex 85.42853497436872 53.58177260743005 7.049916206369744e-16
    vertex 86.7653884553661 54.13551545016486 7.049916206369744e-16
  endloop
endfacet
facet normal 0.3826834323650992 -0.9238795325112831 -0.0
  outer loop
    vertex 85.42853497436872 53.58177260743005 7.049916206369744e-16
    vertex 86.7653884553661 54.13551545016486 7.5
    vertex 85.42853497436872 53.58177260743005 7.5
  endloop
endfacet
facet normal -0.13052619222005185 -0.9914448613738105 -0.0
  outer loop
    vertex 83.99391447731992 53.392901235903516 7.5
    vertex 82.55929398027115 53.581772607430054 7.049916206369744e-16
    vertex 83.99391447731992 53.392901235903516 7.049916206369744e-16
  endloop
endfacet
facet normal -0.13052619222005185 -0.9914448613738105 -0.0
  outer loop
    vertex 82.55929398027115 53.581772607430054 7.049916206369744e-16
    vertex 83.99391447731992 53.392901235903516 7.5
    vertex 82.55929398027115 53.581772607430054 7.5
  endloop
endfacet
facet normal 0.13052619222005185 0.9914448613738105 0.0
  outer loop
    vertex 83.99391447731995 64.47879714808819 7.5
    vertex 85.42853497436873 64.28992577656165 7.049916206369744e-16
    vertex 83.99391447731995 64.47879714808819 7.049916206369744e-16
  endloop
endfacet
facet normal 0.13052619222005185 0.9914448613738105 0.0
  outer loop
    vertex 85.42853497436873 64.28992577656165 7.049916206369744e-16
    vertex 83.99391447731995 64.47879714808819 7.5
    vertex 85.42853497436873 64.28992577656165 7.5
  endloop
endfacet
facet normal -0.38268343236508584 -0.9238795325112884 -0.0
  outer loop
    vertex 82.55929398027115 53.581772607430054 7.5
    vertex 81.22244049927376 54.135515450164846 7.049916206369744e-16
    vertex 82.55929398027115 53.581772607430054 7.049916206369744e-16
  endloop
endfacet
facet normal -0.38268343236508584 -0.9238795325112884 -0.0
  outer loop
    vertex 81.22244049927376 54.135515450164846 7.049916206369744e-16
    vertex 82.55929398027115 53.581772607430054 7.5
    vertex 81.22244049927376 54.135515450164846 7.5
  endloop
endfacet
facet normal 0.6087614290087103 -0.7933533402912432 -0.0
  outer loop
    vertex 87.91337056483695 55.01639310447884 7.5
    vertex 86.7653884553661 54.13551545016486 7.049916206369744e-16
    vertex 87.91337056483695 55.01639310447884 7.049916206369744e-16
  endloop
endfacet
facet normal 0.6087614290087103 -0.7933533402912432 -0.0
  outer loop
    vertex 86.7653884553661 54.13551545016486 7.049916206369744e-16
    vertex 87.91337056483695 55.01639310447884 7.5
    vertex 86.7653884553661 54.13551545016486 7.5
  endloop
endfacet
facet normal 0.9914448613738096 -0.1305261922200585 -0.0
  outer loop
    vertex 89.53686243341228 58.93584919199585 7.049916206369744e-16
    vertex 89.34799106188574 57.50122869494706 7.5
    vertex 89.34799106188574 57.50122869494706 7.049916206369744e-16
  endloop
endfacet
facet normal 0.9914448613738096 -0.1305261922200585 -0.0
  outer loop
    vertex 89.34799106188574 57.50122869494706 7.5
    vertex 89.53686243341228 58.93584919199585 7.049916206369744e-16
    vertex 89.53686243341228 58.93584919199585 7.5
  endloop
endfacet
facet normal -0.608761429008719 -0.7933533402912365 -0.0
  outer loop
    vertex 81.22244049927376 54.135515450164846 7.5
    vertex 80.07445838980293 55.01639310447884 7.049916206369744e-16
    vertex 81.22244049927376 54.135515450164846 7.049916206369744e-16
  endloop
endfacet
facet normal -0.608761429008719 -0.7933533402912365 -0.0
  outer loop
    vertex 80.07445838980293 55.01639310447884 7.049916206369744e-16
    vertex 81.22244049927376 54.135515450164846 7.5
    vertex 80.07445838980293 55.01639310447884 7.5
  endloop
endfacet
facet normal 0.9238795325112846 0.3826834323650952 0.0
  outer loop
    vertex 88.79424821915093 61.70732317004203 7.049916206369744e-16
    vertex 89.34799106188574 60.370469689044654 7.5
    vertex 89.34799106188574 60.370469689044654 7.049916206369744e-16
  endloop
endfacet
facet normal 0.9238795325112846 0.3826834323650952 0.0
  outer loop
    vertex 89.34799106188574 60.370469689044654 7.5
    vertex 88.79424821915093 61.70732317004203 7.049916206369744e-16
    vertex 88.79424821915093 61.70732317004203 7.5
  endloop
endfacet
facet normal 0.9914448613738098 0.13052619222005749 0.0
  outer loop
    vertex 89.34799106188574 60.370469689044654 7.049916206369744e-16
    vertex 89.53686243341228 58.93584919199585 7.5
    vertex 89.53686243341228 58.93584919199585 7.049916206369744e-16
  endloop
endfacet
facet normal 0.9914448613738098 0.13052619222005749 0.0
  outer loop
    vertex 89.53686243341228 58.93584919199585 7.5
    vertex 89.34799106188574 60.370469689044654 7.049916206369744e-16
    vertex 89.34799106188574 60.370469689044654 7.5
  endloop
endfacet
facet normal 0.38268343236508584 0.9238795325112884 0.0
  outer loop
    vertex 85.42853497436873 64.28992577656165 7.5
    vertex 86.76538845536611 63.73618293382685 7.049916206369744e-16
    vertex 85.42853497436873 64.28992577656165 7.049916206369744e-16
  endloop
endfacet
facet normal 0.38268343236508584 0.9238795325112884 0.0
  outer loop
    vertex 86.76538845536611 63.73618293382685 7.049916206369744e-16
    vertex 85.42853497436873 64.28992577656165 7.5
    vertex 86.76538845536611 63.73618293382685 7.5
  endloop
endfacet
facet normal 0.608761429008719 0.7933533402912365 0.0
  outer loop
    vertex 86.76538845536611 63.73618293382685 7.5
    vertex 87.91337056483695 62.85530527951287 7.049916206369744e-16
    vertex 86.76538845536611 63.73618293382685 7.049916206369744e-16
  endloop
endfacet
facet normal 0.608761429008719 0.7933533402912365 0.0
  outer loop
    vertex 87.91337056483695 62.85530527951287 7.049916206369744e-16
    vertex 86.76538845536611 63.73618293382685 7.5
    vertex 87.91337056483695 62.85530527951287 7.5
  endloop
endfacet
facet normal 0.7933533402912404 0.6087614290087141 0.0
  outer loop
    vertex 87.91337056483695 62.85530527951287 7.049916206369744e-16
    vertex 88.79424821915093 61.70732317004203 7.5
    vertex 88.79424821915093 61.70732317004203 7.049916206369744e-16
  endloop
endfacet
facet normal 0.7933533402912404 0.6087614290087141 0.0
  outer loop
    vertex 88.79424821915093 61.70732317004203 7.5
    vertex 87.91337056483695 62.85530527951287 7.049916206369744e-16
    vertex 87.91337056483695 62.85530527951287 7.5
  endloop
endfacet
facet normal 0.7933533402912365 -0.608761429008719 -0.0
  outer loop
    vertex 88.79424821915094 56.164375213949675 7.049916206369744e-16
    vertex 87.91337056483695 55.01639310447884 7.5
    vertex 87.91337056483695 55.01639310447884 7.049916206369744e-16
  endloop
endfacet
facet normal 0.7933533402912365 -0.608761429008719 -0.0
  outer loop
    vertex 87.91337056483695 55.01639310447884 7.5
    vertex 88.79424821915094 56.164375213949675 7.049916206369744e-16
    vertex 88.79424821915094 56.164375213949675 7.5
  endloop
endfacet
facet normal -0.9238795325112856 -0.38268343236509245 -0.0
  outer loop
    vertex 78.63983789275414 57.50122869494707 7.5
    vertex 79.19358073548894 56.16437521394969 7.049916206369744e-16
    vertex 79.19358073548894 56.16437521394969 7.5
  endloop
endfacet
facet normal -0.9238795325112856 -0.38268343236509245 -0.0
  outer loop
    vertex 79.19358073548894 56.16437521394969 7.049916206369744e-16
    vertex 78.63983789275414 57.50122869494707 7.5
    vertex 78.63983789275414 57.50122869494707 7.049916206369744e-16
  endloop
endfacet
facet normal -0.7933533402912432 -0.6087614290087103 -0.0
  outer loop
    vertex 79.19358073548894 56.16437521394969 7.5
    vertex 80.07445838980293 55.01639310447884 7.049916206369744e-16
    vertex 80.07445838980293 55.01639310447884 7.5
  endloop
endfacet
facet normal -0.7933533402912432 -0.6087614290087103 -0.0
  outer loop
    vertex 80.07445838980293 55.01639310447884 7.049916206369744e-16
    vertex 79.19358073548894 56.16437521394969 7.5
    vertex 79.19358073548894 56.16437521394969 7.049916206369744e-16
  endloop
endfacet
facet normal -0.9914448613738106 -0.13052619222005085 -0.0
  outer loop
    vertex 78.4509665212276 58.935849191995864 7.5
    vertex 78.63983789275414 57.50122869494707 7.049916206369744e-16
    vertex 78.63983789275414 57.50122869494707 7.5
  endloop
endfacet
facet normal -0.9914448613738106 -0.13052619222005085 -0.0
  outer loop
    vertex 78.63983789275414 57.50122869494707 7.049916206369744e-16
    vertex 78.4509665212276 58.935849191995864 7.5
    vertex 78.4509665212276 58.935849191995864 7.049916206369744e-16
  endloop
endfacet
facet normal -0.9914448613738105 0.13052619222005185 -0.0
  outer loop
    vertex 78.63983789275414 60.37046968904465 7.5
    vertex 78.4509665212276 58.935849191995864 7.049916206369744e-16
    vertex 78.4509665212276 58.935849191995864 7.5
  endloop
endfacet
facet normal -0.9914448613738105 0.13052619222005185 -0.0
  outer loop
    vertex 78.4509665212276 58.935849191995864 7.049916206369744e-16
    vertex 78.63983789275414 60.37046968904465 7.5
    vertex 78.63983789275414 60.37046968904465 7.049916206369744e-16
  endloop
endfacet
facet normal -0.3943737347728872 -0.9189501386480579 -0.0
  outer loop
    vertex 78.63983789275414 60.37046968904465 7.5
    vertex 78.46505471353511 60.44547908538196 7.049916206369744e-16
    vertex 78.63983789275414 60.37046968904465 7.049916206369744e-16
  endloop
endfacet
facet normal -0.3943737347728872 -0.9189501386480579 -0.0
  outer loop
    vertex 78.46505471353511 60.44547908538196 7.049916206369744e-16
    vertex 78.63983789275414 60.37046968904465 7.5
    vertex 78.46505471353511 60.44547908538196 7.5
  endloop
endfacet
facet normal -0.9914448613738078 -0.13052619222007272 -0.0
  outer loop
    vertex 77.73652869158128 61.70732317004202 7.5
    vertex 77.78617653603126 61.330210351373175 7.049916206369744e-16
    vertex 77.78617653603126 61.330210351373175 7.5
  endloop
endfacet
facet normal -0.9914448613738078 -0.13052619222007272 -0.0
  outer loop
    vertex 77.78617653603126 61.330210351373175 7.049916206369744e-16
    vertex 77.73652869158128 61.70732317004202 7.5
    vertex 77.73652869158128 61.70732317004202 7.049916206369744e-16
  endloop
endfacet
facet normal -0.9238795325112865 -0.3826834323650907 -0.0
  outer loop
    vertex 77.78617653603126 61.330210351373175 7.5
    vertex 77.93173665082888 60.9787971480882 7.049916206369744e-16
    vertex 77.93173665082888 60.9787971480882 7.5
  endloop
endfacet
facet normal -0.9238795325112865 -0.3826834323650907 -0.0
  outer loop
    vertex 77.93173665082888 60.9787971480882 7.049916206369744e-16
    vertex 77.78617653603126 61.330210351373175 7.5
    vertex 77.78617653603126 61.330210351373175 7.049916206369744e-16
  endloop
endfacet
facet normal -0.991444861373812 0.1305261922200397 -1.2171034451257207e-31
  outer loop
    vertex 77.78617653603126 62.08443598871087 7.5
    vertex 77.73652869158128 61.70732317004202 7.049916206369744e-16
    vertex 77.73652869158128 61.70732317004202 7.5
  endloop
endfacet
facet normal -0.991444861373812 0.1305261922200397 -1.2171034451257207e-31
  outer loop
    vertex 77.73652869158128 61.70732317004202 7.049916206369744e-16
    vertex 77.78617653603126 62.08443598871087 7.5
    vertex 77.78617653603126 62.08443598871087 7.049916206369744e-16
  endloop
endfacet
facet normal -0.7933533402912305 -0.6087614290087269 -0.0
  outer loop
    vertex 77.93173665082888 60.9787971480882 7.5
    vertex 78.16328935470013 60.677031789253206 7.049916206369744e-16
    vertex 78.16328935470013 60.677031789253206 7.5
  endloop
endfacet
facet normal -0.7933533402912305 -0.6087614290087269 -0.0
  outer loop
    vertex 78.16328935470013 60.677031789253206 7.049916206369744e-16
    vertex 77.93173665082888 60.9787971480882 7.5
    vertex 77.93173665082888 60.9787971480882 7.049916206369744e-16
  endloop
endfacet
facet normal -0.6087614290087269 -0.7933533402912305 -0.0
  outer loop
    vertex 78.46505471353511 60.44547908538196 7.5
    vertex 78.16328935470013 60.677031789253206 7.049916206369744e-16
    vertex 78.46505471353511 60.44547908538196 7.049916206369744e-16
  endloop
endfacet
facet normal -0.6087614290087269 -0.7933533402912305 -0.0
  outer loop
    vertex 78.16328935470013 60.677031789253206 7.049916206369744e-16
    vertex 78.46505471353511 60.44547908538196 7.5
    vertex 78.16328935470013 60.677031789253206 7.5
  endloop
endfacet
facet normal -0.13052619222007272 0.9914448613738078 -0.0
  outer loop
    vertex 78.81646791682007 63.11472736949969 7.5
    vertex 79.19358073548892 63.164375213949675 7.049916206369744e-16
    vertex 78.81646791682007 63.11472736949969 7.049916206369744e-16
  endloop
endfacet
facet normal -0.13052619222007272 0.9914448613738078 -0.0
  outer loop
    vertex 79.19358073548892 63.164375213949675 7.049916206369744e-16
    vertex 78.81646791682007 63.11472736949969 7.5
    vertex 79.19358073548892 63.164375213949675 7.5
  endloop
endfacet
facet normal 0.1305261922200397 0.9914448613738119 0.0
  outer loop
    vertex 79.19358073548892 63.164375213949675 7.5
    vertex 79.57069355415777 63.114727369499704 7.049916206369744e-16
    vertex 79.19358073548892 63.164375213949675 7.049916206369744e-16
  endloop
endfacet
facet normal 0.1305261922200397 0.9914448613738119 0.0
  outer loop
    vertex 79.57069355415777 63.114727369499704 7.049916206369744e-16
    vertex 79.19358073548892 63.164375213949675 7.5
    vertex 79.57069355415777 63.114727369499704 7.5
  endloop
endfacet
facet normal -0.608761429008719 0.7933533402912365 -0.0
  outer loop
    vertex 80.07445838980293 62.85530527951287 7.5
    vertex 81.22244049927377 63.73618293382685 7.049916206369744e-16
    vertex 80.07445838980293 62.85530527951287 7.049916206369744e-16
  endloop
endfacet
facet normal -0.608761429008719 0.7933533402912365 -0.0
  outer loop
    vertex 81.22244049927377 63.73618293382685 7.049916206369744e-16
    vertex 80.07445838980293 62.85530527951287 7.5
    vertex 81.22244049927377 63.73618293382685 7.5
  endloop
endfacet
facet normal -0.6087614290087269 0.7933533402912306 -7.570112043764202e-19
  outer loop
    vertex 78.16328935470011 62.737614550830834 7.5
    vertex 78.4650547135351 62.96916725470208 7.049916206369744e-16
    vertex 78.16328935470011 62.737614550830834 7.049916206369744e-16
  endloop
endfacet
facet normal -0.6087614290087269 0.7933533402912306 -7.570112043764202e-19
  outer loop
    vertex 78.4650547135351 62.96916725470208 7.049916206369744e-16
    vertex 78.16328935470011 62.737614550830834 7.5
    vertex 78.4650547135351 62.96916725470208 7.5
  endloop
endfacet
facet normal -0.13052619222005085 0.9914448613738106 -0.0
  outer loop
    vertex 82.55929398027115 64.28992577656165 7.5
    vertex 83.99391447731995 64.47879714808819 7.049916206369744e-16
    vertex 82.55929398027115 64.28992577656165 7.049916206369744e-16
  endloop
endfacet
facet normal -0.13052619222005085 0.9914448613738106 -0.0
  outer loop
    vertex 83.99391447731995 64.47879714808819 7.049916206369744e-16
    vertex 82.55929398027115 64.28992577656165 7.5
    vertex 83.99391447731995 64.47879714808819 7.5
  endloop
endfacet
facet normal 0.3826834323650907 0.9238795325112865 0.0
  outer loop
    vertex 79.57069355415777 63.114727369499704 7.5
    vertex 79.92210675744275 62.96916725470209 7.049916206369744e-16
    vertex 79.57069355415777 63.114727369499704 7.049916206369744e-16
  endloop
endfacet
facet normal 0.3826834323650907 0.9238795325112865 0.0
  outer loop
    vertex 79.92210675744275 62.96916725470209 7.049916206369744e-16
    vertex 79.57069355415777 63.114727369499704 7.5
    vertex 79.92210675744275 62.96916725470209 7.5
  endloop
endfacet
facet normal 0.5986472974939655 0.8010127422227262 0.0
  outer loop
    vertex 79.92210675744275 62.96916725470209 7.5
    vertex 80.07445838980293 62.85530527951287 7.049916206369744e-16
    vertex 79.92210675744275 62.96916725470209 7.049916206369744e-16
  endloop
endfacet
facet normal 0.5986472974939655 0.8010127422227262 0.0
  outer loop
    vertex 80.07445838980293 62.85530527951287 7.049916206369744e-16
    vertex 79.92210675744275 62.96916725470209 7.5
    vertex 80.07445838980293 62.85530527951287 7.5
  endloop
endfacet
facet normal -0.38268343236508584 0.9238795325112884 -0.0
  outer loop
    vertex 81.22244049927377 63.73618293382685 7.5
    vertex 82.55929398027115 64.28992577656165 7.049916206369744e-16
    vertex 81.22244049927377 63.73618293382685 7.049916206369744e-16
  endloop
endfacet
facet normal -0.38268343236508584 0.9238795325112884 -0.0
  outer loop
    vertex 82.55929398027115 64.28992577656165 7.049916206369744e-16
    vertex 81.22244049927377 63.73618293382685 7.5
    vertex 82.55929398027115 64.28992577656165 7.5
  endloop
endfacet
facet normal -0.3826834323650907 0.9238795325112865 -0.0
  outer loop
    vertex 78.4650547135351 62.96916725470208 7.5
    vertex 78.81646791682007 63.11472736949969 7.049916206369744e-16
    vertex 78.4650547135351 62.96916725470208 7.049916206369744e-16
  endloop
endfacet
facet normal -0.3826834323650907 0.9238795325112865 -0.0
  outer loop
    vertex 78.81646791682007 63.11472736949969 7.049916206369744e-16
    vertex 78.4650547135351 62.96916725470208 7.5
    vertex 78.81646791682007 63.11472736949969 7.5
  endloop
endfacet
facet normal 0.0 0.0 1.0
  outer loop
    vertex 82.43499117217527 55.8747070094094 1.0000000000000009
    vertex 82.12234923517626 61.81648746809597 1.0000000000000009
    vertex 80.56342593003158 58.75534528550951 1.0000000000000009
  endloop
endfacet
facet normal 0.0 0.0 1.0
  outer loop
    vertex 82.12234923517626 61.81648746809597 1.0000000000000009
    vertex 82.43499117217527 55.8747070094094 1.0000000000000009
    vertex 85.55283778246461 61.99699137458231 1.0000000000000009
  endloop
endfacet
facet normal 0.0 0.0 1.0
  outer loop
    vertex 85.55283778246461 61.99699137458231 1.0000000000000009
    vertex 82.43499117217527 55.8747070094094 1.0000000000000009
    vertex 85.86547971946362 56.055210915895735 1.0000000000000009
  endloop
endfacet
facet normal 0.0 0.0 1.0
  outer loop
    vertex 85.55283778246461 61.99699137458231 1.0000000000000009
    vertex 85.86547971946362 56.055210915895735 1.0000000000000009
    vertex 87.42440302460828 59.11635309848219 1.0000000000000009
  endloop
endfacet
facet normal 0.8911014772154662 -0.4538040957334057 -0.0
  outer loop
    vertex 82.12234923517626 61.81648746809597 1.0000000000000009
    vertex 80.56342593003158 58.75534528550951 4.5
    vertex 80.56342593003158 58.75534528550951 1.0000000000000009
  endloop
endfacet
facet normal 0.8911014772154662 -0.4538040957334057 -0.0
  outer loop
    vertex 80.56342593003158 58.75534528550951 4.5
    vertex 82.12234923517626 61.81648746809597 1.0000000000000009
    vertex 82.12234923517626 61.81648746809597 4.5
  endloop
endfacet
facet normal 0.8385566138542883 0.5448144687517305 0.0
  outer loop
    vertex 80.56342593003158 58.75534528550951 1.0000000000000009
    vertex 82.43499117217527 55.8747070094094 4.5
    vertex 82.43499117217527 55.8747070094094 1.0000000000000009
  endloop
endfacet
facet normal 0.8385566138542883 0.5448144687517305 0.0
  outer loop
    vertex 82.43499117217527 55.8747070094094 4.5
    vertex 80.56342593003158 58.75534528550951 1.0000000000000009
    vertex 80.56342593003158 58.75534528550951 4.5
  endloop
endfacet
facet normal -0.8911014772154662 0.4538040957334057 -0.0
  outer loop
    vertex 87.42440302460828 59.11635309848219 4.5
    vertex 85.86547971946362 56.055210915895735 1.0000000000000009
    vertex 85.86547971946362 56.055210915895735 4.5
  endloop
endfacet
facet normal -0.8911014772154662 0.4538040957334057 -0.0
  outer loop
    vertex 85.86547971946362 56.055210915895735 1.0000000000000009
    vertex 87.42440302460828 59.11635309848219 4.5
    vertex 87.42440302460828 59.11635309848219 1.0000000000000009
  endloop
endfacet
facet normal -0.8385566138542883 -0.5448144687517305 -0.0
  outer loop
    vertex 85.55283778246461 61.99699137458231 4.5
    vertex 87.42440302460828 59.11635309848219 1.0000000000000009
    vertex 87.42440302460828 59.11635309848219 4.5
  endloop
endfacet
facet normal -0.8385566138542883 -0.5448144687517305 -0.0
  outer loop
    vertex 87.42440302460828 59.11635309848219 1.0000000000000009
    vertex 85.55283778246461 61.99699137458231 4.5
    vertex 85.55283778246461 61.99699137458231 1.0000000000000009
  endloop
endfacet
facet normal 0.05254486336117671 -0.9986185644851368 -0.0
  outer loop
    vertex 85.55283778246461 61.99699137458231 4.5
    vertex 82.12234923517626 61.81648746809597 1.0000000000000009
    vertex 85.55283778246461 61.99699137458231 1.0000000000000009
  endloop
endfacet
facet normal 0.05254486336117671 -0.9986185644851368 -0.0
  outer loop
    vertex 82.12234923517626 61.81648746809597 1.0000000000000009
    vertex 85.55283778246461 61.99699137458231 4.5
    vertex 82.12234923517626 61.81648746809597 4.5
  endloop
endfacet
facet normal -0.05254486336117671 0.9986185644851368 -0.0
  outer loop
    vertex 82.43499117217527 55.8747070094094 4.5
    vertex 85.86547971946362 56.055210915895735 1.0000000000000009
    vertex 82.43499117217527 55.8747070094094 1.0000000000000009
  endloop
endfacet
facet normal -0.05254486336117671 0.9986185644851368 -0.0
  outer loop
    vertex 85.86547971946362 56.055210915895735 1.0000000000000009
    vertex 82.43499117217527 55.8747070094094 4.5
    vertex 85.86547971946362 56.055210915895735 4.5
  endloop
endfacet
facet normal -3.3958995949794093e-32 -4.6022289435349185e-33 1.0
  outer loop
    vertex 78.63983789275414 57.50122869494707 7.5
    vertex 78.63983789275414 60.37046968904465 7.5
    vertex 78.4509665212276 58.935849191995864 7.5
  endloop
endfacet
facet normal -3.3958995949794093e-32 -4.6022289435349185e-33 1.0
  outer loop
    vertex 78.63983789275414 60.37046968904465 7.5
    vertex 78.63983789275414 57.50122869494707 7.5
    vertex 79.19358073548894 56.16437521394969 7.5
  endloop
endfacet
facet normal -3.3958995949794093e-32 -4.6022289435349185e-33 1.0
  outer loop
    vertex 78.63983789275414 60.37046968904465 7.5
    vertex 79.19358073548894 56.16437521394969 7.5
    vertex 78.81646791682009 60.29991897058435 7.5
  endloop
endfacet
facet normal -3.3958995949794093e-32 -4.6022289435349185e-33 1.0
  outer loop
    vertex 78.81646791682009 60.29991897058435 7.5
    vertex 79.19358073548894 56.16437521394969 7.5
    vertex 79.19358073548894 60.25027112613438 7.5
  endloop
endfacet
facet normal -3.3958995949794093e-32 -4.6022289435349185e-33 1.0
  outer loop
    vertex 79.19358073548894 60.25027112613438 7.5
    vertex 79.19358073548894 56.16437521394969 7.5
    vertex 80.07445838980293 55.01639310447884 7.5
  endloop
endfacet
facet normal -3.3958995949794093e-32 -4.6022289435349185e-33 1.0
  outer loop
    vertex 79.19358073548894 60.25027112613438 7.5
    vertex 80.07445838980293 55.01639310447884 7.5
    vertex 79.57069355415778 60.299918970584365 7.5
  endloop
endfacet
facet normal -3.3958995949794093e-32 -4.6022289435349185e-33 1.0
  outer loop
    vertex 79.57069355415778 60.299918970584365 7.5
    vertex 80.07445838980293 55.01639310447884 7.5
    vertex 79.92210675744276 60.445479085381976 7.5
  endloop
endfacet
facet normal -3.3958995949794093e-32 -4.6022289435349185e-33 1.0
  outer loop
    vertex 79.92210675744276 60.445479085381976 7.5
    vertex 80.07445838980293 55.01639310447884 7.5
    vertex 79.98687323300834 58.725008494503406 7.5
  endloop
endfacet
facet normal -3.3958995949794093e-32 -4.6022289435349185e-33 1.0
  outer loop
    vertex 79.98687323300834 58.725008494503406 7.5
    vertex 80.07445838980293 55.01639310447884 7.5
    vertex 82.17298725534422 55.36022933166377 7.5
  endloop
endfacet
facet normal -3.3958995949794093e-32 -4.6022289435349185e-33 1.0
  outer loop
    vertex 82.17298725534422 55.36022933166377 7.5
    vertex 80.07445838980293 55.01639310447884 7.5
    vertex 81.22244049927376 54.135515450164846 7.5
  endloop
endfacet
facet normal -3.3958995949794093e-32 -4.6022289435349185e-33 1.0
  outer loop
    vertex 82.17298725534422 55.36022933166377 7.5
    vertex 81.22244049927376 54.135515450164846 7.5
    vertex 82.55929398027115 53.581772607430054 7.5
  endloop
endfacet
facet normal -3.3958995949794093e-32 -4.6022289435349185e-33 1.0
  outer loop
    vertex 82.17298725534422 55.36022933166377 7.5
    vertex 82.55929398027115 53.581772607430054 7.5
    vertex 86.18002849965583 55.57107002915622 7.5
  endloop
endfacet
facet normal -3.3958995949794093e-32 -4.6022289435349185e-33 1.0
  outer loop
    vertex 86.18002849965583 55.57107002915622 7.5
    vertex 82.55929398027115 53.581772607430054 7.5
    vertex 83.99391447731992 53.392901235903516 7.5
  endloop
endfacet
facet normal -3.3958995949794093e-32 -4.6022289435349185e-33 1.0
  outer loop
    vertex 86.18002849965583 55.57107002915622 7.5
    vertex 83.99391447731992 53.392901235903516 7.5
    vertex 85.42853497436872 53.58177260743005 7.5
  endloop
endfacet
facet normal -3.3958995949794093e-32 -4.6022289435349185e-33 1.0
  outer loop
    vertex 86.18002849965583 55.57107002915622 7.5
    vertex 85.42853497436872 53.58177260743005 7.5
    vertex 86.7653884553661 54.13551545016486 7.5
  endloop
endfacet
facet normal -3.3958995949794093e-32 -4.6022289435349185e-33 1.0
  outer loop
    vertex 86.18002849965583 55.57107002915622 7.5
    vertex 86.7653884553661 54.13551545016486 7.5
    vertex 88.00095572163154 59.1466898894883 7.5
  endloop
endfacet
facet normal -3.3958995949794093e-32 -4.6022289435349185e-33 1.0
  outer loop
    vertex 88.00095572163154 59.1466898894883 7.5
    vertex 86.7653884553661 54.13551545016486 7.5
    vertex 87.91337056483695 55.01639310447884 7.5
  endloop
endfacet
facet normal -3.3958995949794093e-32 -4.6022289435349185e-33 1.0
  outer loop
    vertex 88.00095572163154 59.1466898894883 7.5
    vertex 87.91337056483695 55.01639310447884 7.5
    vertex 88.79424821915094 56.164375213949675 7.5
  endloop
endfacet
facet normal -3.3958995949794093e-32 -4.6022289435349185e-33 1.0
  outer loop
    vertex 88.00095572163154 59.1466898894883 7.5
    vertex 88.79424821915094 56.164375213949675 7.5
    vertex 88.79424821915093 61.70732317004203 7.5
  endloop
endfacet
facet normal -3.3958995949794093e-32 -4.6022289435349185e-33 1.0
  outer loop
    vertex 88.79424821915093 61.70732317004203 7.5
    vertex 88.79424821915094 56.164375213949675 7.5
    vertex 89.34799106188574 60.370469689044654 7.5
  endloop
endfacet
facet normal -3.3958995949794093e-32 -4.6022289435349185e-33 1.0
  outer loop
    vertex 89.34799106188574 60.370469689044654 7.5
    vertex 88.79424821915094 56.164375213949675 7.5
    vertex 89.34799106188574 57.50122869494706 7.5
  endloop
endfacet
facet normal -3.3958995949794093e-32 -4.6022289435349185e-33 1.0
  outer loop
    vertex 89.34799106188574 60.370469689044654 7.5
    vertex 89.34799106188574 57.50122869494706 7.5
    vertex 89.53686243341228 58.93584919199585 7.5
  endloop
endfacet
facet normal -3.3958995949794093e-32 -4.6022289435349185e-33 1.0
  outer loop
    vertex 79.98687323300834 58.725008494503406 7.5
    vertex 80.22387211627775 60.67703178925322 7.5
    vertex 79.92210675744276 60.445479085381976 7.5
  endloop
endfacet
facet normal -3.3958995949794093e-32 -4.6022289435349185e-33 1.0
  outer loop
    vertex 80.22387211627775 60.67703178925322 7.5
    vertex 79.98687323300834 58.725008494503406 7.5
    vertex 81.80780045498405 62.30062835483549 7.5
  endloop
endfacet
facet normal -3.3958995949794093e-32 -4.6022289435349185e-33 1.0
  outer loop
    vertex 80.22387211627775 60.67703178925322 7.5
    vertex 81.80780045498405 62.30062835483549 7.5
    vertex 80.45542482014899 60.97879714808821 7.5
  endloop
endfacet
facet normal -3.3958995949794093e-32 -4.6022289435349185e-33 1.0
  outer loop
    vertex 80.45542482014899 60.97879714808821 7.5
    vertex 81.80780045498405 62.30062835483549 7.5
    vertex 80.60098493494661 61.33021035137318 7.5
  endloop
endfacet
facet normal -3.3958995949794093e-32 -4.6022289435349185e-33 1.0
  outer loop
    vertex 80.60098493494661 61.33021035137318 7.5
    vertex 81.80780045498405 62.30062835483549 7.5
    vertex 80.65063277939657 61.70732317004204 7.5
  endloop
endfacet
facet normal -3.3958995949794093e-32 -4.6022289435349185e-33 1.0
  outer loop
    vertex 80.65063277939657 61.70732317004204 7.5
    vertex 81.80780045498405 62.30062835483549 7.5
    vertex 81.22244049927377 63.73618293382685 7.5
  endloop
endfacet
facet normal -3.3958995949794093e-32 -4.6022289435349185e-33 1.0
  outer loop
    vertex 81.22244049927377 63.73618293382685 7.5
    vertex 81.80780045498405 62.30062835483549 7.5
    vertex 82.55929398027115 64.28992577656165 7.5
  endloop
endfacet
facet normal -3.3958995949794093e-32 -4.6022289435349185e-33 1.0
  outer loop
    vertex 82.55929398027115 64.28992577656165 7.5
    vertex 81.80780045498405 62.30062835483549 7.5
    vertex 85.81484169929564 62.51146905232794 7.5
  endloop
endfacet
facet normal -3.3958995949794093e-32 -4.6022289435349185e-33 1.0
  outer loop
    vertex 82.55929398027115 64.28992577656165 7.5
    vertex 85.81484169929564 62.51146905232794 7.5
    vertex 83.99391447731995 64.47879714808819 7.5
  endloop
endfacet
facet normal -3.3958995949794093e-32 -4.6022289435349185e-33 1.0
  outer loop
    vertex 83.99391447731995 64.47879714808819 7.5
    vertex 85.81484169929564 62.51146905232794 7.5
    vertex 85.42853497436873 64.28992577656165 7.5
  endloop
endfacet
facet normal -3.3958995949794093e-32 -4.6022289435349185e-33 1.0
  outer loop
    vertex 85.42853497436873 64.28992577656165 7.5
    vertex 85.81484169929564 62.51146905232794 7.5
    vertex 86.76538845536611 63.73618293382685 7.5
  endloop
endfacet
facet normal -3.3958995949794093e-32 -4.6022289435349185e-33 1.0
  outer loop
    vertex 86.76538845536611 63.73618293382685 7.5
    vertex 85.81484169929564 62.51146905232794 7.5
    vertex 88.00095572163154 59.1466898894883 7.5
  endloop
endfacet
facet normal -3.3958995949794093e-32 -4.6022289435349185e-33 1.0
  outer loop
    vertex 86.76538845536611 63.73618293382685 7.5
    vertex 88.00095572163154 59.1466898894883 7.5
    vertex 87.91337056483695 62.85530527951287 7.5
  endloop
endfacet
facet normal -3.3958995949794093e-32 -4.6022289435349185e-33 1.0
  outer loop
    vertex 87.91337056483695 62.85530527951287 7.5
    vertex 88.00095572163154 59.1466898894883 7.5
    vertex 88.79424821915093 61.70732317004203 7.5
  endloop
endfacet
facet normal -3.3958995949794093e-32 -4.6022289435349185e-33 1.0
  outer loop
    vertex 80.22387211627773 62.73761455083085 7.5
    vertex 81.22244049927377 63.73618293382685 7.5
    vertex 80.07445838980293 62.85530527951287 7.5
  endloop
endfacet
facet normal -3.3958995949794093e-32 -4.6022289435349185e-33 1.0
  outer loop
    vertex 81.22244049927377 63.73618293382685 7.5
    vertex 80.22387211627773 62.73761455083085 7.5
    vertex 80.45542482014899 62.43584919199586 7.5
  endloop
endfacet
facet normal -3.3958995949794093e-32 -4.6022289435349185e-33 1.0
  outer loop
    vertex 81.22244049927377 63.73618293382685 7.5
    vertex 80.45542482014899 62.43584919199586 7.5
    vertex 80.6009849349466 62.08443598871089 7.5
  endloop
endfacet
facet normal -3.3958995949794093e-32 -4.6022289435349185e-33 1.0
  outer loop
    vertex 81.22244049927377 63.73618293382685 7.5
    vertex 80.6009849349466 62.08443598871089 7.5
    vertex 80.65063277939657 61.70732317004204 7.5
  endloop
endfacet
facet normal -1.1568666826152268e-17 6.6791729062440886e-18 -1.0
  outer loop
    vertex 77.78617653603126 62.08443598871087 7.049916206369744e-16
    vertex 77.78617653603126 61.330210351373175 7.049916206369744e-16
    vertex 77.73652869158128 61.70732317004202 7.049916206369744e-16
  endloop
endfacet
facet normal -1.1568666826152268e-17 6.6791729062440886e-18 -1.0
  outer loop
    vertex 77.78617653603126 61.330210351373175 7.049916206369744e-16
    vertex 77.78617653603126 62.08443598871087 7.049916206369744e-16
    vertex 77.93173665082887 62.43584919199585 0.0
  endloop
endfacet
facet normal -1.1568666826152268e-17 6.6791729062440886e-18 -1.0
  outer loop
    vertex 77.78617653603126 61.330210351373175 7.049916206369744e-16
    vertex 77.93173665082887 62.43584919199585 0.0
    vertex 77.93173665082888 60.9787971480882 7.049916206369744e-16
  endloop
endfacet
facet normal -1.1568666826152268e-17 6.6791729062440886e-18 -1.0
  outer loop
    vertex 77.93173665082888 60.9787971480882 7.049916206369744e-16
    vertex 77.93173665082887 62.43584919199585 0.0
    vertex 78.16328935470011 62.737614550830834 7.049916206369744e-16
  endloop
endfacet
facet normal -1.1568666826152268e-17 6.6791729062440886e-18 -1.0
  outer loop
    vertex 77.93173665082888 60.9787971480882 7.049916206369744e-16
    vertex 78.16328935470011 62.737614550830834 7.049916206369744e-16
    vertex 78.16328935470013 60.677031789253206 7.049916206369744e-16
  endloop
endfacet
facet normal -1.1568666826152268e-17 6.6791729062440886e-18 -1.0
  outer loop
    vertex 78.16328935470013 60.677031789253206 7.049916206369744e-16
    vertex 78.16328935470011 62.737614550830834 7.049916206369744e-16
    vertex 78.4650547135351 62.96916725470208 7.049916206369744e-16
  endloop
endfacet
facet normal -1.1568666826152268e-17 6.6791729062440886e-18 -1.0
  outer loop
    vertex 78.16328935470013 60.677031789253206 7.049916206369744e-16
    vertex 78.4650547135351 62.96916725470208 7.049916206369744e-16
    vertex 78.46505471353511 60.44547908538196 7.049916206369744e-16
  endloop
endfacet
facet normal -1.1568666826152268e-17 6.6791729062440886e-18 -1.0
  outer loop
    vertex 78.46505471353511 60.44547908538196 7.049916206369744e-16
    vertex 78.4650547135351 62.96916725470208 7.049916206369744e-16
    vertex 78.81646791682007 63.11472736949969 7.049916206369744e-16
  endloop
endfacet
facet normal -1.1568666826152268e-17 6.6791729062440886e-18 -1.0
  outer loop
    vertex 78.46505471353511 60.44547908538196 7.049916206369744e-16
    vertex 78.81646791682007 63.11472736949969 7.049916206369744e-16
    vertex 78.63983789275414 60.37046968904465 7.049916206369744e-16
  endloop
endfacet
facet normal -1.1568666826152268e-17 6.6791729062440886e-18 -1.0
  outer loop
    vertex 78.63983789275414 60.37046968904465 7.049916206369744e-16
    vertex 78.81646791682007 63.11472736949969 7.049916206369744e-16
    vertex 78.63983789275414 57.50122869494707 7.049916206369744e-16
  endloop
endfacet
facet normal -1.1568666826152268e-17 6.6791729062440886e-18 -1.0
  outer loop
    vertex 78.63983789275414 57.50122869494707 7.049916206369744e-16
    vertex 78.81646791682007 63.11472736949969 7.049916206369744e-16
    vertex 79.19358073548894 56.16437521394969 7.049916206369744e-16
  endloop
endfacet
facet normal -1.1568666826152268e-17 6.6791729062440886e-18 -1.0
  outer loop
    vertex 79.19358073548894 56.16437521394969 7.049916206369744e-16
    vertex 78.81646791682007 63.11472736949969 7.049916206369744e-16
    vertex 79.19358073548892 63.164375213949675 7.049916206369744e-16
  endloop
endfacet
facet normal -1.1568666826152268e-17 6.6791729062440886e-18 -1.0
  outer loop
    vertex 79.19358073548894 56.16437521394969 7.049916206369744e-16
    vertex 79.19358073548892 63.164375213949675 7.049916206369744e-16
    vertex 79.57069355415777 63.114727369499704 7.049916206369744e-16
  endloop
endfacet
facet normal -1.1568666826152268e-17 6.6791729062440886e-18 -1.0
  outer loop
    vertex 79.19358073548894 56.16437521394969 7.049916206369744e-16
    vertex 79.57069355415777 63.114727369499704 7.049916206369744e-16
    vertex 80.07445838980293 55.01639310447884 7.049916206369744e-16
  endloop
endfacet
facet normal -1.1568666826152268e-17 6.6791729062440886e-18 -1.0
  outer loop
    vertex 80.07445838980293 55.01639310447884 7.049916206369744e-16
    vertex 79.57069355415777 63.114727369499704 7.049916206369744e-16
    vertex 79.92210675744275 62.96916725470209 7.049916206369744e-16
  endloop
endfacet
facet normal -1.1568666826152268e-17 6.6791729062440886e-18 -1.0
  outer loop
    vertex 80.07445838980293 55.01639310447884 7.049916206369744e-16
    vertex 79.92210675744275 62.96916725470209 7.049916206369744e-16
    vertex 80.07445838980293 62.85530527951287 7.049916206369744e-16
  endloop
endfacet
facet normal -1.1568666826152268e-17 6.6791729062440886e-18 -1.0
  outer loop
    vertex 80.07445838980293 55.01639310447884 7.049916206369744e-16
    vertex 80.07445838980293 62.85530527951287 7.049916206369744e-16
    vertex 81.22244049927376 54.135515450164846 7.049916206369744e-16
  endloop
endfacet
facet normal -1.1568666826152268e-17 6.6791729062440886e-18 -1.0
  outer loop
    vertex 81.22244049927376 54.135515450164846 7.049916206369744e-16
    vertex 80.07445838980293 62.85530527951287 7.049916206369744e-16
    vertex 81.22244049927377 63.73618293382685 7.049916206369744e-16
  endloop
endfacet
facet normal -1.1568666826152268e-17 6.6791729062440886e-18 -1.0
  outer loop
    vertex 81.22244049927376 54.135515450164846 7.049916206369744e-16
    vertex 81.22244049927377 63.73618293382685 7.049916206369744e-16
    vertex 82.55929398027115 53.581772607430054 7.049916206369744e-16
  endloop
endfacet
facet normal -1.1568666826152268e-17 6.6791729062440886e-18 -1.0
  outer loop
    vertex 82.55929398027115 53.581772607430054 7.049916206369744e-16
    vertex 81.22244049927377 63.73618293382685 7.049916206369744e-16
    vertex 82.55929398027115 64.28992577656165 7.049916206369744e-16
  endloop
endfacet
facet normal -1.1568666826152268e-17 6.6791729062440886e-18 -1.0
  outer loop
    vertex 82.55929398027115 53.581772607430054 7.049916206369744e-16
    vertex 82.55929398027115 64.28992577656165 7.049916206369744e-16
    vertex 83.99391447731992 53.392901235903516 7.049916206369744e-16
  endloop
endfacet
facet normal -1.1568666826152268e-17 6.6791729062440886e-18 -1.0
  outer loop
    vertex 83.99391447731992 53.392901235903516 7.049916206369744e-16
    vertex 82.55929398027115 64.28992577656165 7.049916206369744e-16
    vertex 83.99391447731995 64.47879714808819 7.049916206369744e-16
  endloop
endfacet
facet normal -1.1568666826152268e-17 6.6791729062440886e-18 -1.0
  outer loop
    vertex 83.99391447731992 53.392901235903516 7.049916206369744e-16
    vertex 83.99391447731995 64.47879714808819 7.049916206369744e-16
    vertex 85.42853497436872 53.58177260743005 7.049916206369744e-16
  endloop
endfacet
facet normal -1.1568666826152268e-17 6.6791729062440886e-18 -1.0
  outer loop
    vertex 85.42853497436872 53.58177260743005 7.049916206369744e-16
    vertex 83.99391447731995 64.47879714808819 7.049916206369744e-16
    vertex 85.42853497436873 64.28992577656165 7.049916206369744e-16
  endloop
endfacet
facet normal -1.1568666826152268e-17 6.6791729062440886e-18 -1.0
  outer loop
    vertex 85.42853497436872 53.58177260743005 7.049916206369744e-16
    vertex 85.42853497436873 64.28992577656165 7.049916206369744e-16
    vertex 86.7653884553661 54.13551545016486 7.049916206369744e-16
  endloop
endfacet
facet normal -1.1568666826152268e-17 6.6791729062440886e-18 -1.0
  outer loop
    vertex 86.7653884553661 54.13551545016486 7.049916206369744e-16
    vertex 85.42853497436873 64.28992577656165 7.049916206369744e-16
    vertex 86.76538845536611 63.73618293382685 7.049916206369744e-16
  endloop
endfacet
facet normal -1.1568666826152268e-17 6.6791729062440886e-18 -1.0
  outer loop
    vertex 86.7653884553661 54.13551545016486 7.049916206369744e-16
    vertex 86.76538845536611 63.73618293382685 7.049916206369744e-16
    vertex 87.91337056483695 55.01639310447884 7.049916206369744e-16
  endloop
endfacet
facet normal -1.1568666826152268e-17 6.6791729062440886e-18 -1.0
  outer loop
    vertex 87.91337056483695 55.01639310447884 7.049916206369744e-16
    vertex 86.76538845536611 63.73618293382685 7.049916206369744e-16
    vertex 87.91337056483695 62.85530527951287 7.049916206369744e-16
  endloop
endfacet
facet normal -1.1568666826152268e-17 6.6791729062440886e-18 -1.0
  outer loop
    vertex 87.91337056483695 55.01639310447884 7.049916206369744e-16
    vertex 87.91337056483695 62.85530527951287 7.049916206369744e-16
    vertex 88.79424821915093 61.70732317004203 7.049916206369744e-16
  endloop
endfacet
facet normal -1.1568666826152268e-17 6.6791729062440886e-18 -1.0
  outer loop
    vertex 87.91337056483695 55.01639310447884 7.049916206369744e-16
    vertex 88.79424821915093 61.70732317004203 7.049916206369744e-16
    vertex 88.79424821915094 56.164375213949675 7.049916206369744e-16
  endloop
endfacet
facet normal -1.1568666826152268e-17 6.6791729062440886e-18 -1.0
  outer loop
    vertex 88.79424821915094 56.164375213949675 7.049916206369744e-16
    vertex 88.79424821915093 61.70732317004203 7.049916206369744e-16
    vertex 89.34799106188574 60.370469689044654 7.049916206369744e-16
  endloop
endfacet
facet normal -1.1568666826152268e-17 6.6791729062440886e-18 -1.0
  outer loop
    vertex 88.79424821915094 56.164375213949675 7.049916206369744e-16
    vertex 89.34799106188574 60.370469689044654 7.049916206369744e-16
    vertex 89.34799106188574 57.50122869494706 7.049916206369744e-16
  endloop
endfacet
facet normal -1.1568666826152268e-17 6.6791729062440886e-18 -1.0
  outer loop
    vertex 89.34799106188574 57.50122869494706 7.049916206369744e-16
    vertex 89.34799106188574 60.370469689044654 7.049916206369744e-16
    vertex 89.53686243341228 58.93584919199585 7.049916206369744e-16
  endloop
endfacet
facet normal -1.1568666826152268e-17 6.6791729062440886e-18 -1.0
  outer loop
    vertex 78.63983789275414 57.50122869494707 7.049916206369744e-16
    vertex 78.4509665212276 58.935849191995864 7.049916206369744e-16
    vertex 78.63983789275414 60.37046968904465 7.049916206369744e-16
  endloop
endfacet
facet normal -0.9238795325112865 0.38268343236509067 -1.9711476422100613e-19
  outer loop
    vertex 77.93173665082887 62.43584919199585 7.5
    vertex 77.78617653603126 62.08443598871087 7.049916206369744e-16
    vertex 77.78617653603126 62.08443598871087 7.5
  endloop
endfacet
facet normal -0.9238795325112865 0.38268343236509067 -1.9711476422100613e-19
  outer loop
    vertex 77.78617653603126 62.08443598871087 7.049916206369744e-16
    vertex 77.93173665082887 62.43584919199585 7.5
    vertex 77.93173665082887 62.43584919199585 0.0
  endloop
endfacet
facet normal -0.7933533402912306 0.6087614290087269 -5.274661996844308e-19
  outer loop
    vertex 78.16328935470011 62.737614550830834 7.5
    vertex 77.93173665082887 62.43584919199585 0.0
    vertex 77.93173665082887 62.43584919199585 7.5
  endloop
endfacet
facet normal -0.7933533402912306 0.6087614290087269 -5.274661996844308e-19
  outer loop
    vertex 77.93173665082887 62.43584919199585 0.0
    vertex 78.16328935470011 62.737614550830834 7.5
    vertex 78.16328935470011 62.737614550830834 7.049916206369744e-16
  endloop
endfacet
facet normal -0.8385566138542886 -0.5448144687517298 -0.0
  outer loop
    vertex 85.81484169929564 62.51146905232794 7.5
    vertex 88.00095572163154 59.1466898894883 4.5
    vertex 88.00095572163154 59.1466898894883 7.5
  endloop
endfacet
facet normal -0.8385566138542886 -0.5448144687517298 -0.0
  outer loop
    vertex 88.00095572163154 59.1466898894883 4.5
    vertex 85.81484169929564 62.51146905232794 7.5
    vertex 85.81484169929564 62.51146905232794 4.5
  endloop
endfacet
facet normal 0.05254486336117738 -0.9986185644851368 -0.0
  outer loop
    vertex 85.81484169929564 62.51146905232794 7.5
    vertex 81.80780045498405 62.30062835483549 4.5
    vertex 85.81484169929564 62.51146905232794 4.5
  endloop
endfacet
facet normal 0.05254486336117738 -0.9986185644851368 -0.0
  outer loop
    vertex 81.80780045498405 62.30062835483549 4.5
    vertex 85.81484169929564 62.51146905232794 7.5
    vertex 81.80780045498405 62.30062835483549 7.5
  endloop
endfacet
facet normal -0.05254486336117738 0.9986185644851368 -0.0
  outer loop
    vertex 82.17298725534422 55.36022933166377 7.5
    vertex 86.18002849965583 55.57107002915622 4.5
    vertex 82.17298725534422 55.36022933166377 4.5
  endloop
endfacet
facet normal -0.05254486336117738 0.9986185644851368 -0.0
  outer loop
    vertex 86.18002849965583 55.57107002915622 4.5
    vertex 82.17298725534422 55.36022933166377 7.5
    vertex 86.18002849965583 55.57107002915622 7.5
  endloop
endfacet
facet normal 0.8385566138542886 0.5448144687517298 0.0
  outer loop
    vertex 79.98687323300834 58.725008494503406 4.5
    vertex 82.17298725534422 55.36022933166377 7.5
    vertex 82.17298725534422 55.36022933166377 4.5
  endloop
endfacet
facet normal 0.8385566138542886 0.5448144687517298 0.0
  outer loop
    vertex 82.17298725534422 55.36022933166377 7.5
    vertex 79.98687323300834 58.725008494503406 4.5
    vertex 79.98687323300834 58.725008494503406 7.5
  endloop
endfacet
facet normal 0.8911014772154658 -0.45380409573340624 -0.0
  outer loop
    vertex 81.80780045498405 62.30062835483549 4.5
    vertex 79.98687323300834 58.725008494503406 7.5
    vertex 79.98687323300834 58.725008494503406 4.5
  endloop
endfacet
facet normal 0.8911014772154658 -0.45380409573340624 -0.0
  outer loop
    vertex 79.98687323300834 58.725008494503406 7.5
    vertex 81.80780045498405 62.30062835483549 4.5
    vertex 81.80780045498405 62.30062835483549 7.5
  endloop
endfacet
facet normal -0.8911014772154658 0.45380409573340624 -0.0
  outer loop
    vertex 88.00095572163154 59.1466898894883 7.5
    vertex 86.18002849965583 55.57107002915622 4.5
    vertex 86.18002849965583 55.57107002915622 7.5
  endloop
endfacet
facet normal -0.8911014772154658 0.45380409573340624 -0.0
  outer loop
    vertex 86.18002849965583 55.57107002915622 4.5
    vertex 88.00095572163154 59.1466898894883 7.5
    vertex 88.00095572163154 59.1466898894883 4.5
  endloop
endfacet
facet normal -0.0 -0.0 1.0
  outer loop
    vertex 82.17298725534422 55.36022933166377 4.5
    vertex 80.56342593003158 58.75534528550951 4.5
    vertex 79.98687323300834 58.725008494503406 4.5
  endloop
endfacet
facet normal -0.0 -0.0 1.0
  outer loop
    vertex 80.56342593003158 58.75534528550951 4.5
    vertex 82.17298725534422 55.36022933166377 4.5
    vertex 82.43499117217527 55.8747070094094 4.5
  endloop
endfacet
facet normal -0.0 -0.0 1.0
  outer loop
    vertex 82.43499117217527 55.8747070094094 4.5
    vertex 82.17298725534422 55.36022933166377 4.5
    vertex 86.18002849965583 55.57107002915622 4.5
  endloop
endfacet
facet normal -0.0 -0.0 1.0
  outer loop
    vertex 82.43499117217527 55.8747070094094 4.5
    vertex 86.18002849965583 55.57107002915622 4.5
    vertex 85.86547971946362 56.055210915895735 4.5
  endloop
endfacet
facet normal -0.0 -0.0 1.0
  outer loop
    vertex 85.86547971946362 56.055210915895735 4.5
    vertex 86.18002849965583 55.57107002915622 4.5
    vertex 87.42440302460828 59.11635309848219 4.5
  endloop
endfacet
facet normal -0.0 -0.0 1.0
  outer loop
    vertex 87.42440302460828 59.11635309848219 4.5
    vertex 86.18002849965583 55.57107002915622 4.5
    vertex 88.00095572163154 59.1466898894883 4.5
  endloop
endfacet
facet normal -0.0 -0.0 1.0
  outer loop
    vertex 80.56342593003158 58.75534528550951 4.5
    vertex 81.80780045498405 62.30062835483549 4.5
    vertex 79.98687323300834 58.725008494503406 4.5
  endloop
endfacet
facet normal -0.0 -0.0 1.0
  outer loop
    vertex 81.80780045498405 62.30062835483549 4.5
    vertex 80.56342593003158 58.75534528550951 4.5
    vertex 82.12234923517626 61.81648746809597 4.5
  endloop
endfacet
facet normal -0.0 -0.0 1.0
  outer loop
    vertex 81.80780045498405 62.30062835483549 4.5
    vertex 82.12234923517626 61.81648746809597 4.5
    vertex 85.81484169929564 62.51146905232794 4.5
  endloop
endfacet
facet normal -0.0 -0.0 1.0
  outer loop
    vertex 85.81484169929564 62.51146905232794 4.5
    vertex 82.12234923517626 61.81648746809597 4.5
    vertex 85.55283778246461 61.99699137458231 4.5
  endloop
endfacet
facet normal -0.0 -0.0 1.0
  outer loop
    vertex 85.81484169929564 62.51146905232794 4.5
    vertex 85.55283778246461 61.99699137458231 4.5
    vertex 87.42440302460828 59.11635309848219 4.5
  endloop
endfacet
facet normal -0.0 -0.0 1.0
  outer loop
    vertex 85.81484169929564 62.51146905232794 4.5
    vertex 87.42440302460828 59.11635309848219 4.5
    vertex 88.00095572163154 59.1466898894883 4.5
  endloop
endfacet
facet normal -0.0 -0.0 1.0
  outer loop
    vertex 78.81646791682009 60.29991897058435 7.5
    vertex 79.19358073548894 61.70732317004203 7.5
    vertex 78.63983789275414 60.37046968904465 7.5
  endloop
endfacet
facet normal -0.0 -0.0 1.0
  outer loop
    vertex 79.19358073548894 61.70732317004203 7.5
    vertex 78.81646791682009 60.29991897058435 7.5
    vertex 79.19358073548894 60.25027112613438 7.5
  endloop
endfacet
facet normal -0.0 -0.0 1.0
  outer loop
    vertex 79.19358073548894 61.70732317004203 7.5
    vertex 79.19358073548894 60.25027112613438 7.5
    vertex 80.07445838980293 62.85530527951287 7.5
  endloop
endfacet
facet normal -0.0 -0.0 1.0
  outer loop
    vertex 80.07445838980293 62.85530527951287 7.5
    vertex 79.19358073548894 60.25027112613438 7.5
    vertex 79.57069355415778 60.299918970584365 7.5
  endloop
endfacet
facet normal -0.0 -0.0 1.0
  outer loop
    vertex 80.07445838980293 62.85530527951287 7.5
    vertex 79.57069355415778 60.299918970584365 7.5
    vertex 79.92210675744276 60.445479085381976 7.5
  endloop
endfacet
facet normal -0.0 -0.0 1.0
  outer loop
    vertex 80.07445838980293 62.85530527951287 7.5
    vertex 79.92210675744276 60.445479085381976 7.5
    vertex 80.22387211627775 60.67703178925322 7.5
  endloop
endfacet
facet normal -0.0 -0.0 1.0
  outer loop
    vertex 80.07445838980293 62.85530527951287 7.5
    vertex 80.22387211627775 60.67703178925322 7.5
    vertex 80.22387211627773 62.73761455083085 7.5
  endloop
endfacet
facet normal -0.0 -0.0 1.0
  outer loop
    vertex 80.22387211627773 62.73761455083085 7.5
    vertex 80.22387211627775 60.67703178925322 7.5
    vertex 80.45542482014899 62.43584919199586 7.5
  endloop
endfacet
facet normal -0.0 -0.0 1.0
  outer loop
    vertex 80.45542482014899 62.43584919199586 7.5
    vertex 80.22387211627775 60.67703178925322 7.5
    vertex 80.45542482014899 60.97879714808821 7.5
  endloop
endfacet
facet normal -0.0 -0.0 1.0
  outer loop
    vertex 80.45542482014899 62.43584919199586 7.5
    vertex 80.45542482014899 60.97879714808821 7.5
    vertex 80.6009849349466 62.08443598871089 7.5
  endloop
endfacet
facet normal -0.0 -0.0 1.0
  outer loop
    vertex 80.6009849349466 62.08443598871089 7.5
    vertex 80.45542482014899 60.97879714808821 7.5
    vertex 80.60098493494661 61.33021035137318 7.5
  endloop
endfacet
facet normal -0.0 -0.0 1.0
  outer loop
    vertex 80.6009849349466 62.08443598871089 7.5
    vertex 80.60098493494661 61.33021035137318 7.5
    vertex 80.65063277939657 61.70732317004204 7.5
  endloop
endfacet
facet normal -0.0 -0.0 1.0
  outer loop
    vertex 77.78617653603126 61.330210351373175 7.5
    vertex 77.78617653603126 62.08443598871087 7.5
    vertex 77.73652869158128 61.70732317004202 7.5
  endloop
endfacet
facet normal -0.0 -0.0 1.0
  outer loop
    vertex 77.78617653603126 62.08443598871087 7.5
    vertex 77.78617653603126 61.330210351373175 7.5
    vertex 77.93173665082887 62.43584919199585 7.5
  endloop
endfacet
facet normal -0.0 -0.0 1.0
  outer loop
    vertex 77.93173665082887 62.43584919199585 7.5
    vertex 77.78617653603126 61.330210351373175 7.5
    vertex 77.93173665082888 60.9787971480882 7.5
  endloop
endfacet
facet normal -0.0 -0.0 1.0
  outer loop
    vertex 77.93173665082887 62.43584919199585 7.5
    vertex 77.93173665082888 60.9787971480882 7.5
    vertex 78.16328935470011 62.737614550830834 7.5
  endloop
endfacet
facet normal -0.0 -0.0 1.0
  outer loop
    vertex 78.16328935470011 62.737614550830834 7.5
    vertex 77.93173665082888 60.9787971480882 7.5
    vertex 78.16328935470013 60.677031789253206 7.5
  endloop
endfacet
facet normal -0.0 -0.0 1.0
  outer loop
    vertex 78.16328935470011 62.737614550830834 7.5
    vertex 78.16328935470013 60.677031789253206 7.5
    vertex 78.4650547135351 62.96916725470208 7.5
  endloop
endfacet
facet normal -0.0 -0.0 1.0
  outer loop
    vertex 78.4650547135351 62.96916725470208 7.5
    vertex 78.16328935470013 60.677031789253206 7.5
    vertex 78.46505471353511 60.44547908538196 7.5
  endloop
endfacet
facet normal -0.0 -0.0 1.0
  outer loop
    vertex 78.4650547135351 62.96916725470208 7.5
    vertex 78.46505471353511 60.44547908538196 7.5
    vertex 78.81646791682007 63.11472736949969 7.5
  endloop
endfacet
facet normal -0.0 -0.0 1.0
  outer loop
    vertex 78.81646791682007 63.11472736949969 7.5
    vertex 78.46505471353511 60.44547908538196 7.5
    vertex 78.63983789275414 60.37046968904465 7.5
  endloop
endfacet
facet normal -0.0 -0.0 1.0
  outer loop
    vertex 78.81646791682007 63.11472736949969 7.5
    vertex 78.63983789275414 60.37046968904465 7.5
    vertex 79.19358073548894 61.70732317004203 7.5
  endloop
endfacet
facet normal -0.0 -0.0 1.0
  outer loop
    vertex 78.81646791682007 63.11472736949969 7.5
    vertex 79.19358073548894 61.70732317004203 7.5
    vertex 79.19358073548892 63.164375213949675 7.5
  endloop
endfacet
facet normal -0.0 -0.0 1.0
  outer loop
    vertex 79.19358073548892 63.164375213949675 7.5
    vertex 79.19358073548894 61.70732317004203 7.5
    vertex 79.57069355415777 63.114727369499704 7.5
  endloop
endfacet
facet normal -0.0 -0.0 1.0
  outer loop
    vertex 79.57069355415777 63.114727369499704 7.5
    vertex 79.19358073548894 61.70732317004203 7.5
    vertex 80.07445838980293 62.85530527951287 7.5
  endloop
endfacet
facet normal -0.0 -0.0 1.0
  outer loop
    vertex 79.57069355415777 63.114727369499704 7.5
    vertex 80.07445838980293 62.85530527951287 7.5
    vertex 79.92210675744275 62.96916725470209 7.5
  endloop
endfacet
endsolid Untitled-5c080378
